<svg width="141" height="36" viewBox="0 0 141 36" fill="none" xmlns="http://www.w3.org/2000/svg">
<path fill-rule="evenodd" clip-rule="evenodd" d="M34.5306 17.8798L34.5305 17.8899V17.9C34.5305 26.6954 27.4259 33.8 18.6305 33.8C9.83504 33.8 2.73047 26.6954 2.73047 17.9C2.73047 9.10457 9.83504 2 18.6305 2C27.4445 2 34.6191 9.11856 34.5306 17.8798ZM18.6305 0C8.73047 0 0.730469 8 0.730469 17.9C0.730469 27.8 8.73047 35.8 18.6305 35.8C28.5305 35.8 36.5305 27.8 36.5305 17.9C36.6305 8 28.5305 0 18.6305 0ZM24.4297 13.1924C24.4297 13.7902 23.9451 14.2748 23.3473 14.2748C22.7495 14.2748 22.2649 13.7902 22.2649 13.1924C22.2649 12.5946 22.7495 12.11 23.3473 12.11C23.9451 12.11 24.4297 12.5946 24.4297 13.1924ZM27.4969 22.2937V13.5063C27.4969 11.0388 25.4892 9.0311 23.0217 9.0311H14.2343C11.7726 9.0311 9.76489 11.0388 9.76489 13.5063V22.2937C9.76489 24.7612 11.7726 26.7689 14.2401 26.7689H23.0275C25.4892 26.7631 27.4969 24.7554 27.4969 22.2937ZM25.5706 22.2937C25.5706 23.6962 24.43 24.8368 23.0275 24.8368H14.2401C12.8376 24.8368 11.697 23.6962 11.697 22.2937V13.5063C11.697 12.1038 12.8376 10.9632 14.2401 10.9632H23.0275C24.43 10.9632 25.5706 12.1038 25.5706 13.5063V22.2937ZM14.0657 17.9004C14.0657 15.3806 16.1141 13.3321 18.634 13.3321C21.148 13.3321 23.2023 15.3806 23.2023 17.9004C23.2023 20.4203 21.1538 22.4687 18.634 22.4687C16.1141 22.4687 14.0657 20.4203 14.0657 17.9004ZM15.9977 17.9004C15.9977 19.3553 17.1791 20.5366 18.634 20.5366C20.0888 20.5366 21.2702 19.3553 21.2702 17.9004C21.2702 16.4455 20.0888 15.2642 18.634 15.2642C17.1791 15.2642 15.9977 16.4455 15.9977 17.9004Z" fill="white"/>
<path fill-rule="evenodd" clip-rule="evenodd" d="M86.5086 17.8798L86.5085 17.8899V17.9C86.5085 26.6954 79.4039 33.8 70.6085 33.8C61.8131 33.8 54.7085 26.6954 54.7085 17.9C54.7085 9.10457 61.8131 2 70.6085 2C79.4226 2 86.5971 9.11856 86.5086 17.8798ZM70.6085 0C60.7085 0 52.7085 8 52.7085 17.9C52.7085 27.8 60.7085 35.8 70.6085 35.8C80.5085 35.8 88.5085 27.8 88.5085 17.9C88.6085 8 80.5085 0 70.6085 0ZM74.9995 17.8252L75.2656 14.6356H71.8065V12.1105C71.8065 11.1802 72.6048 10.9144 73.403 10.9144C74.2013 10.9144 75.1325 11.1802 75.1325 11.1802L75.7977 7.99056C75.7977 7.99056 74.6004 7.59186 71.8065 7.59186C70.077 7.59186 69.0127 8.25636 68.3475 9.18667C67.6823 10.117 67.6823 11.5789 67.6823 12.5092V14.6356H65.4207V17.8252H67.6823V28.856H71.8065V17.8252H74.9995Z" fill="white"/>
<path fill-rule="evenodd" clip-rule="evenodd" d="M138.487 17.8798L138.487 17.8899V17.9C138.487 26.6954 131.382 33.8 122.587 33.8C113.791 33.8 106.687 26.6954 106.687 17.9C106.687 9.10457 113.791 2 122.587 2C131.401 2 138.575 9.11856 138.487 17.8798ZM122.587 0C112.687 0 104.687 8 104.687 17.9C104.687 27.8 112.687 35.8 122.587 35.8C132.487 35.8 140.487 27.8 140.487 17.9C140.587 8 132.487 0 122.587 0ZM132.717 23.1145C132.741 23.1545 132.765 23.2024 132.793 23.2583C132.817 23.3182 132.844 23.418 132.868 23.5658C132.896 23.7095 132.896 23.8373 132.864 23.9531C132.836 24.0689 132.741 24.1728 132.582 24.2686C132.428 24.3644 132.201 24.4124 131.916 24.4124L129.014 24.4563C128.831 24.4962 128.621 24.4763 128.379 24.4004C128.137 24.3245 127.938 24.2407 127.787 24.1488L127.561 24.013C127.335 23.8533 127.069 23.6097 126.767 23.2823C126.461 22.9548 126.203 22.6633 125.989 22.3997C125.775 22.1362 125.544 21.9165 125.298 21.7368C125.052 21.5611 124.842 21.5012 124.659 21.5611C124.635 21.5691 124.604 21.5811 124.568 21.6011C124.528 21.617 124.465 21.673 124.373 21.7648C124.286 21.8566 124.203 21.9685 124.131 22.1002C124.056 22.232 123.992 22.4277 123.937 22.6912C123.877 22.9508 123.853 23.2463 123.861 23.5738C123.861 23.6896 123.849 23.7934 123.822 23.8892C123.798 23.9851 123.77 24.057 123.738 24.1009L123.695 24.1568C123.56 24.3006 123.361 24.3844 123.095 24.4084H121.793C121.257 24.4403 120.706 24.3764 120.138 24.2207C119.574 24.0649 119.078 23.8653 118.649 23.6177C118.225 23.3701 117.836 23.1185 117.482 22.863C117.133 22.6074 116.867 22.3918 116.684 22.2081L116.403 21.9325C116.327 21.8566 116.22 21.7408 116.089 21.5891C115.958 21.4373 115.688 21.0899 115.279 20.5508C114.87 20.0117 114.469 19.4367 114.076 18.8297C113.683 18.2227 113.219 17.4241 112.687 16.4257C112.155 15.4274 111.659 14.3971 111.207 13.3229C111.163 13.2031 111.139 13.0993 111.139 13.0155C111.139 12.9316 111.151 12.8717 111.183 12.8198L111.226 12.7519C111.341 12.6081 111.556 12.5363 111.873 12.5363L114.978 12.5123C115.069 12.5283 115.156 12.5522 115.24 12.5882C115.323 12.6201 115.386 12.6521 115.422 12.684L115.478 12.72C115.601 12.8038 115.692 12.9236 115.752 13.0834C115.902 13.4667 116.073 13.8581 116.272 14.2654C116.466 14.6727 116.621 14.9842 116.736 15.1958L116.919 15.5273C117.137 15.9825 117.351 16.3778 117.554 16.7133C117.76 17.0487 117.943 17.3083 118.106 17.496C118.264 17.6836 118.423 17.8274 118.574 17.9352C118.725 18.043 118.852 18.0949 118.959 18.0949C119.066 18.0949 119.165 18.075 119.265 18.039C119.281 18.0311 119.296 18.0151 119.32 17.9831C119.34 17.9512 119.388 17.8673 119.455 17.7316C119.527 17.5958 119.574 17.4161 119.61 17.1965C119.642 16.9768 119.677 16.6693 119.717 16.274C119.753 15.8787 119.753 15.4035 119.717 14.8484C119.701 14.5449 119.666 14.2694 119.614 14.0178C119.562 13.7702 119.507 13.5945 119.455 13.4947L119.388 13.3589C119.197 13.0993 118.876 12.9356 118.423 12.8677C118.324 12.8517 118.344 12.7599 118.479 12.5922C118.606 12.4444 118.749 12.3326 118.907 12.2487C119.308 12.0491 120.209 11.9572 121.615 11.9732C122.234 11.9812 122.742 12.0291 123.143 12.121C123.294 12.1609 123.421 12.2128 123.524 12.2767C123.627 12.3446 123.707 12.4364 123.758 12.5522C123.81 12.668 123.849 12.7918 123.877 12.9156C123.905 13.0434 123.917 13.2151 123.917 13.4348C123.917 13.6544 123.913 13.866 123.905 14.0617C123.9 14.1795 123.895 14.3233 123.89 14.4931C123.886 14.6055 123.882 14.7292 123.877 14.8644C123.865 15.2038 123.861 15.5193 123.861 15.8068C123.861 15.8906 123.857 16.0504 123.849 16.286C123.849 16.3128 123.849 16.339 123.848 16.3645C123.845 16.5627 123.842 16.7198 123.845 16.8331C123.849 16.9648 123.861 17.1166 123.885 17.2963C123.909 17.472 123.953 17.6197 124.016 17.7395C124.08 17.8593 124.163 17.9512 124.27 18.0191C124.321 18.0288 124.373 18.041 124.426 18.0538C124.439 18.0569 124.452 18.0599 124.465 18.063C124.532 18.079 124.631 18.039 124.758 17.9392C124.889 17.8434 125.032 17.7116 125.191 17.5479C125.35 17.3841 125.544 17.1326 125.779 16.7851C126.013 16.4377 126.271 16.0304 126.549 15.5592C127.005 14.7685 127.406 13.914 127.763 12.9955C127.791 12.9196 127.831 12.8517 127.875 12.7958C127.918 12.7399 127.958 12.7 127.998 12.676L128.041 12.6401L128.097 12.6121C128.097 12.6121 128.144 12.6002 128.244 12.5762C128.343 12.5562 128.418 12.5522 128.47 12.5722L131.733 12.5482C132.027 12.5083 132.269 12.5203 132.459 12.5762C132.646 12.6321 132.765 12.696 132.809 12.7639L132.876 12.8757C133.051 13.3589 132.483 14.477 131.177 16.2261C130.995 16.4697 130.748 16.7931 130.439 17.1965C129.851 17.9552 129.51 18.4543 129.419 18.69C129.292 19.0014 129.343 19.3089 129.577 19.6124C129.704 19.7721 130.01 20.0836 130.494 20.5468H130.506L130.518 20.5588L130.53 20.5708L130.554 20.5948C131.618 21.5891 132.34 22.4317 132.717 23.1145Z" fill="white"/>
</svg>
