<svg width="37" height="36" viewBox="0 0 37 36" fill="none" xmlns="http://www.w3.org/2000/svg">
<path fill-rule="evenodd" clip-rule="evenodd" d="M34.5306 17.8798L34.5305 17.8899V17.9C34.5305 26.6954 27.4259 33.8 18.6305 33.8C9.83504 33.8 2.73047 26.6954 2.73047 17.9C2.73047 9.10457 9.83504 2 18.6305 2C27.4445 2 34.6191 9.11856 34.5306 17.8798ZM18.6305 0C8.73047 0 0.730469 8 0.730469 17.9C0.730469 27.8 8.73047 35.8 18.6305 35.8C28.5305 35.8 36.5305 27.8 36.5305 17.9C36.6305 8 28.5305 0 18.6305 0ZM24.4297 13.1924C24.4297 13.7902 23.9451 14.2748 23.3473 14.2748C22.7495 14.2748 22.2649 13.7902 22.2649 13.1924C22.2649 12.5946 22.7495 12.11 23.3473 12.11C23.9451 12.11 24.4297 12.5946 24.4297 13.1924ZM27.4969 22.2937V13.5063C27.4969 11.0388 25.4892 9.0311 23.0217 9.0311H14.2343C11.7726 9.0311 9.76489 11.0388 9.76489 13.5063V22.2937C9.76489 24.7612 11.7726 26.7689 14.2401 26.7689H23.0275C25.4892 26.7631 27.4969 24.7554 27.4969 22.2937ZM25.5706 22.2937C25.5706 23.6962 24.43 24.8368 23.0275 24.8368H14.2401C12.8376 24.8368 11.697 23.6962 11.697 22.2937V13.5063C11.697 12.1038 12.8376 10.9632 14.2401 10.9632H23.0275C24.43 10.9632 25.5706 12.1038 25.5706 13.5063V22.2937ZM14.0657 17.9004C14.0657 15.3806 16.1141 13.3321 18.634 13.3321C21.148 13.3321 23.2023 15.3806 23.2023 17.9004C23.2023 20.4203 21.1538 22.4687 18.634 22.4687C16.1141 22.4687 14.0657 20.4203 14.0657 17.9004ZM15.9977 17.9004C15.9977 19.3553 17.1791 20.5366 18.634 20.5366C20.0888 20.5366 21.2702 19.3553 21.2702 17.9004C21.2702 16.4455 20.0888 15.2642 18.634 15.2642C17.1791 15.2642 15.9977 16.4455 15.9977 17.9004Z" fill="white"/>
</svg>
