<svg width="37" height="36" viewBox="0 0 37 36" fill="none" xmlns="http://www.w3.org/2000/svg">
<path fill-rule="evenodd" clip-rule="evenodd" d="M34.4866 17.8798L34.4865 17.8899V17.9C34.4865 26.6954 27.382 33.8 18.5865 33.8C9.79109 33.8 2.68652 26.6954 2.68652 17.9C2.68652 9.10457 9.79109 2 18.5865 2C27.4006 2 34.5751 9.11856 34.4866 17.8798ZM18.5865 0C8.68652 0 0.686523 8 0.686523 17.9C0.686523 27.8 8.68652 35.8 18.5865 35.8C28.4865 35.8 36.4865 27.8 36.4865 17.9C36.5865 8 28.4865 0 18.5865 0ZM28.7173 23.1145C28.7412 23.1545 28.765 23.2024 28.7928 23.2583C28.8166 23.3182 28.8444 23.418 28.8682 23.5658C28.896 23.7095 28.896 23.8373 28.8642 23.9531C28.8364 24.0689 28.7412 24.1728 28.5824 24.2686C28.4276 24.3644 28.2013 24.4124 27.9155 24.4124L25.0138 24.4563C24.8312 24.4962 24.6208 24.4763 24.3787 24.4004C24.1365 24.3245 23.938 24.2407 23.7872 24.1488L23.5609 24.013C23.3347 23.8533 23.0687 23.6097 22.767 23.2823C22.4614 22.9548 22.2034 22.6633 21.989 22.3997C21.7747 22.1362 21.5444 21.9165 21.2983 21.7368C21.0522 21.5611 20.8418 21.5012 20.6592 21.5611C20.6354 21.5691 20.6036 21.5811 20.5679 21.6011C20.5282 21.617 20.4647 21.673 20.3734 21.7648C20.2861 21.8566 20.2027 21.9685 20.1313 22.1002C20.0559 22.232 19.9923 22.4277 19.9368 22.6912C19.8772 22.9508 19.8534 23.2463 19.8613 23.5738C19.8613 23.6896 19.8494 23.7934 19.8217 23.8892C19.7978 23.9851 19.77 24.057 19.7383 24.1009L19.6946 24.1568C19.5597 24.3006 19.3612 24.3844 19.0952 24.4084H17.7932C17.2573 24.4403 16.7056 24.3764 16.1379 24.2207C15.5743 24.0649 15.0781 23.8653 14.6494 23.6177C14.2246 23.3701 13.8356 23.1185 13.4823 22.863C13.133 22.6074 12.8671 22.3918 12.6845 22.2081L12.4026 21.9325C12.3272 21.8566 12.22 21.7408 12.089 21.5891C11.958 21.4373 11.6881 21.0899 11.2792 20.5508C10.8704 20.0117 10.4695 19.4367 10.0765 18.8297C9.6835 18.2227 9.21907 17.4241 8.68715 16.4257C8.15523 15.4274 7.65905 14.3971 7.20652 13.3229C7.16286 13.2031 7.13904 13.0993 7.13904 13.0155C7.13904 12.9316 7.15095 12.8717 7.1827 12.8198L7.22637 12.7519C7.34148 12.6081 7.55584 12.5363 7.8734 12.5363L10.9776 12.5123C11.0689 12.5283 11.1562 12.5522 11.2396 12.5882C11.3229 12.6201 11.3864 12.6521 11.4221 12.684L11.4777 12.72C11.6008 12.8038 11.6921 12.9236 11.7516 13.0834C11.9025 13.4667 12.0731 13.8581 12.2716 14.2654C12.4661 14.6727 12.6209 14.9842 12.7361 15.1958L12.9187 15.5273C13.137 15.9825 13.3513 16.3778 13.5538 16.7133C13.7602 17.0487 13.9428 17.3083 14.1055 17.496C14.2643 17.6836 14.4231 17.8274 14.5739 17.9352C14.7248 18.043 14.8518 18.0949 14.959 18.0949C15.0662 18.0949 15.1654 18.075 15.2646 18.039C15.2805 18.0311 15.2964 18.0151 15.3202 17.9831C15.3401 17.9512 15.3877 17.8673 15.4552 17.7316C15.5266 17.5958 15.5743 17.4161 15.61 17.1965C15.6417 16.9768 15.6775 16.6693 15.7172 16.274C15.7529 15.8787 15.7529 15.4035 15.7172 14.8484C15.7013 14.5449 15.6656 14.2694 15.614 14.0178C15.5624 13.7702 15.5068 13.5945 15.4552 13.4947L15.3877 13.3589C15.1972 13.0993 14.8756 12.9356 14.4231 12.8677C14.3239 12.8517 14.3437 12.7599 14.4787 12.5922C14.6057 12.4444 14.7486 12.3326 14.9074 12.2487C15.3083 12.0491 16.2094 11.9572 17.6146 11.9732C18.2338 11.9812 18.7419 12.0291 19.1429 12.121C19.2937 12.1609 19.4207 12.2128 19.5239 12.2767C19.6271 12.3446 19.7065 12.4364 19.7581 12.5522C19.8097 12.668 19.8494 12.7918 19.8772 12.9156C19.905 13.0434 19.9169 13.2151 19.9169 13.4348C19.9169 13.6544 19.913 13.866 19.905 14.0617C19.9002 14.1795 19.8955 14.3233 19.8898 14.4931C19.8861 14.6055 19.882 14.7292 19.8772 14.8644C19.8653 15.2038 19.8613 15.5193 19.8613 15.8068C19.8613 15.8906 19.8574 16.0504 19.8494 16.286C19.849 16.3128 19.8485 16.339 19.8481 16.3645C19.8447 16.5627 19.842 16.7198 19.8455 16.8331C19.8494 16.9648 19.8613 17.1166 19.8852 17.2963C19.909 17.472 19.9526 17.6197 20.0162 17.7395C20.0797 17.8593 20.163 17.9512 20.2702 18.0191C20.3215 18.0288 20.3728 18.041 20.4262 18.0538C20.4389 18.0569 20.4517 18.0599 20.4647 18.063C20.5322 18.079 20.6314 18.039 20.7585 17.9392C20.8895 17.8434 21.0324 17.7116 21.1911 17.5479C21.3499 17.3841 21.5444 17.1326 21.7786 16.7851C22.0128 16.4377 22.2708 16.0304 22.5487 15.5592C23.0052 14.7685 23.4061 13.914 23.7634 12.9955C23.7912 12.9196 23.8309 12.8517 23.8745 12.7958C23.9182 12.7399 23.9579 12.7 23.9976 12.676L24.0412 12.6401L24.0968 12.6121C24.0968 12.6121 24.1445 12.6002 24.2437 12.5762C24.3429 12.5562 24.4184 12.5522 24.47 12.5722L27.7329 12.5482C28.0266 12.5083 28.2688 12.5203 28.4593 12.5762C28.6459 12.6321 28.765 12.696 28.8086 12.7639L28.8761 12.8757C29.0508 13.3589 28.4831 14.477 27.1772 16.2261C26.9946 16.4697 26.7485 16.7931 26.4388 17.1965C25.8514 17.9552 25.51 18.4543 25.4187 18.69C25.2916 19.0014 25.3433 19.3089 25.5775 19.6124C25.7045 19.7721 26.0101 20.0836 26.4944 20.5468H26.5063L26.5182 20.5588L26.5301 20.5708L26.554 20.5948C27.6178 21.5891 28.3402 22.4317 28.7173 23.1145Z" fill="white"/>
</svg>
