<svg width="37" height="36" viewBox="0 0 37 36" fill="none" xmlns="http://www.w3.org/2000/svg">
<path fill-rule="evenodd" clip-rule="evenodd" d="M34.5086 17.8798L34.5085 17.8899V17.9C34.5085 26.6954 27.4039 33.8 18.6085 33.8C9.81307 33.8 2.7085 26.6954 2.7085 17.9C2.7085 9.10457 9.81307 2 18.6085 2C27.4226 2 34.5971 9.11856 34.5086 17.8798ZM18.6085 0C8.7085 0 0.708496 8 0.708496 17.9C0.708496 27.8 8.7085 35.8 18.6085 35.8C28.5085 35.8 36.5085 27.8 36.5085 17.9C36.6085 8 28.5085 0 18.6085 0ZM22.9995 17.8252L23.2656 14.6356H19.8065V12.1105C19.8065 11.1802 20.6048 10.9144 21.403 10.9144C22.2013 10.9144 23.1325 11.1802 23.1325 11.1802L23.7977 7.99056C23.7977 7.99056 22.6004 7.59186 19.8065 7.59186C18.077 7.59186 17.0127 8.25636 16.3475 9.18667C15.6823 10.117 15.6823 11.5789 15.6823 12.5092V14.6356H13.4207V17.8252H15.6823V28.856H19.8065V17.8252H22.9995Z" fill="white"/>
</svg>
